<?xml version="1.0" encoding="UTF-8"?>
<svg id="Layer_1" xmlns="http://www.w3.org/2000/svg" version="1.1" viewBox="0 0 261 250">
  <!-- Generator: Adobe Illustrator 30.0.0, SVG Export Plug-In . SVG Version: 2.1.1 Build 123)  -->
  <defs>
    <style>
      .st0 {
        fill: #efefef;
      }

      .st1 {
        fill: #036de7;
        fill-rule: evenodd;
      }
    </style>
  </defs>
  <rect class="st0" y="-.46" width="261.4" height="249.46"/>
  <g id="Durhan_x5F_Regional_x5F_Government">
    <path class="st1" d="M85.12,198.06c10.03-.22,20.69-.31,31.02-.31,5.39,0,10.63.28,15.37-.41,4.69-.69,8.98-1.41,12.92-3.09,7.85-3.36,14.36-6.86,20.27-12.27,5.68-5.21,10.47-11.23,14.43-18.67,6.21-11.32,10.82-28.47,8.11-46.94-2.37-16.14-9.43-28.31-17.63-38.06-4.14-4.93-9.25-8.87-14.89-12.48-5.63-3.6-11.97-6.4-19.04-7.84-11.29-2.3-25.24-1.13-38.09-1.13-2.2,0-10.79.3-12.72-.41-.15-1.89-.24-4.18-.24-6.43,0-3.54,2.56-6.46,5.8-6.53,6.53-.15,13.34-.15,19.99-.15,5.75,0,11.81-.38,16.78.1,5.48.53,10.15,1.19,14.62,2.47,4.36,1.26,8.49,2.95,12.26,4.95,15.28,8.13,26.65,20.45,34.03,36.52,5.53,12.03,9.55,27.69,7.26,46.01-3.31,26.48-15.82,44.33-32.43,56.54-4.3,3.18-9.42,5.93-14.99,8.15-5.46,2.18-11.76,4.02-18.76,4.02-14.43,0-29.76.1-43.94,0-.04-.08-.51-3.22-.1-4.02h0Z"/>
    <path class="st1" d="M85.12,193.31c-.44-.89-.38-3.2-.1-4.23,11.76-.31,40.47-.17,43.25-.46,6.35-.28,12.02-1.47,15.48-3.77,2.04-.9,3.94-2.24,5.84-3.41,7.75-4.73,13.7-11.18,18.29-19.29,4.51-7.97,7.92-18,7.92-30.54s-3.52-22.43-8.2-30.33c-3.55-5.99-7.96-10.92-13.01-15.16-4.98-4.18-11.08-7.81-18.01-9.8-4.82-1.38-10.08-1.86-16.21-1.86-11.31,0-23.47.17-35.45-.22-.47-1.72-.28-4.23-.28-6.6v-.07c0-3.55,2.55-6.47,5.8-6.52,9.85-.16,19.9-.33,29.56-.22,6.08.07,11.56.4,16.69,1.76,7.54,1.99,13.58,5,19.33,9.08,10.96,7.76,19.55,18.99,24.51,33.63,1.71,5.05,2.62,10.56,3.2,16.61.58,6,.08,12.2-.95,18.26-1.9,11.2-6.17,20.15-11.41,27.85-7.78,11.44-23.46,22.48-32.96,23.92-2.93.78-14.09,1.24-17.22,1.24-12.79-.21-23.89,0-36.09.11h0Z"/>
    <path class="st1" d="M85.12,184.44c-.32-1.01-.28-3.21,0-4.23,9.58-.38,20.02-.17,29.32-.31,5.3-.08,10.25.33,14.71-.31,4.08-.59,7.44-1.72,10.84-3.22,2.24-.99,4.36-2.34,6.26-3.98,4.32-3.75,7.89-7.18,10.62-11.67,3.88-6.37,7.21-14.91,6.79-25.17-.64-15.37-6.21-26.01-14.62-33.22-2.85-2.44-5.73-4.8-9.05-6.5-3.57-1.83-7.45-2.9-11.79-3.51-4.39-.62-9.12-.41-14.24-.41-9.86,0-19.97.27-29.35-.22l-.02-5.18c-.02-4.27,3.09-7.8,7-7.87,7.24-.13,14.6-.15,21.52-.15,5.11,0,10.62-.35,15.37.31,11.54,1.61,20.31,6.69,27.06,13.31,8.13,8.53,14.67,18.49,16.12,33.94,1.58,16.76-3.66,29.97-10.56,39.31-6.99,9.46-16.54,16.46-29.89,18.88-3.6.65-7.6.31-11.5.31-11.37,0-23.04.38-34.6-.1Z"/>
  </g>
  <path class="st1" d="M119.5,102.38h-28.92c-3.29,0-5.96,2.82-5.96,6.3v61c0,.19.15.35.33.35h36.21c18.64,0,33.55-16.8,31.91-36.85-1.47-17.77-16.67-30.79-33.57-30.79Z"/>
</svg>